<?xml version="1.0" encoding="UTF-8" standalone="no"?>
<!-- Created with Inkscape (http://www.inkscape.org/) -->

<svg
   xmlns:dc="http://purl.org/dc/elements/1.1/"
   xmlns:cc="http://creativecommons.org/ns#"
   xmlns:rdf="http://www.w3.org/1999/02/22-rdf-syntax-ns#"
   xmlns:svg="http://www.w3.org/2000/svg"
   xmlns="http://www.w3.org/2000/svg"
   xmlns:sodipodi="http://sodipodi.sourceforge.net/DTD/sodipodi-0.dtd"
   xmlns:inkscape="http://www.inkscape.org/namespaces/inkscape"
   width="123.91268mm"
   height="153.24667mm"
   viewBox="0 0 439.06068 543.00002"
   id="svg6445"
   version="1.1"
   inkscape:version="0.91 r13725"
   sodipodi:docname="chat.svg">
  <defs
     id="defs6447" />
  <sodipodi:namedview
     id="base"
     pagecolor="#ffffff"
     bordercolor="#666666"
     borderopacity="1.0"
     inkscape:pageopacity="0.0"
     inkscape:pageshadow="2"
     inkscape:zoom="0.35"
     inkscape:cx="77.409734"
     inkscape:cy="222.78571"
     inkscape:document-units="px"
     inkscape:current-layer="layer1"
     showgrid="false"
     fit-margin-top="0"
     fit-margin-left="0"
     fit-margin-right="0"
     fit-margin-bottom="0"
     inkscape:window-width="1600"
     inkscape:window-height="824"
     inkscape:window-x="0"
     inkscape:window-y="24"
     inkscape:window-maximized="1" />
  <metadata
     id="metadata6450">
    <rdf:RDF>
      <cc:Work
         rdf:about="">
        <dc:format>image/svg+xml</dc:format>
        <dc:type
           rdf:resource="http://purl.org/dc/dcmitype/StillImage" />
        <dc:title></dc:title>
      </cc:Work>
    </rdf:RDF>
  </metadata>
  <g
     inkscape:label="Calque 1"
     inkscape:groupmode="layer"
     id="layer1"
     transform="translate(200.98116,-212.14792)">
    <g
       id="g7004"
       transform="matrix(0.77240398,0,0,0.77240398,593.45561,152.00684)">
      <path
         style="fill:#eaaba6"
         d="m -905.24467,778.49974 c -2.4331,-2.0335 -3.60465,-2.29664 -8.41316,-1.88974 -7.12318,0.60279 -11.28844,-1.37702 -13.03006,-6.19338 -0.81354,-2.24982 -2.28156,-3.89086 -4.18646,-4.6799 -3.25014,-1.34625 -6.68753,-6.21973 -6.69331,-9.48965 -0.002,-1.16333 0.89626,-3.25931 1.99626,-4.65773 1.1,-1.39842 2,-2.95682 2,-3.46311 0,-1.4354 -9.45264,-3.26481 -16.82629,-3.25647 -17.16255,0.0194 -27.44822,3.57549 -37.61907,13.00603 -4.06158,3.76595 -8.75058,7.55351 -10.42001,8.4168 -4.35693,2.25308 -11.38533,2.05504 -13.59173,-0.38296 -1.242,-1.37243 -2.5675,-1.7925 -4.461,-1.4138 -1.7688,0.35376 -3.146,-0.006 -4.0104,-1.04742 -0.724,-0.87241 -1.8578,-1.5862 -2.5196,-1.5862 -0.6618,0 -2.1817,-1.0415 -3.3776,-2.31445 -2.8667,-3.05147 -2.8324,-7.74413 0.076,-10.36357 3.9409,-3.54971 16.9787,-10.10168 26.34679,-13.24029 17.20733,-5.76499 48.27348,-8.6339 72.90321,-6.7325 l 11,0.8492 -8.57351,-8.8492 c -9.69112,-10.00275 -13.71454,-15.53476 -18.07427,-24.85129 -4.38874,-9.37854 -5.82695,-15.82025 -5.84035,-26.15881 -0.0193,-14.89904 5.06674,-27.17248 14.44448,-34.85683 8.87129,-7.26936 18.09105,-8.87766 31.94348,-5.57224 4.89491,1.16801 8.98846,2.00357 9.09678,1.85681 0.10832,-0.14676 0.73485,-15.79183 1.3923,-34.76683 3.3199,-95.81805 5.84393,-132.66077 11.06409,-161.5 3.07535,-16.99004 11.63875,-47.1342 24.66871,-86.83679 3.03911,-9.26023 5.31356,-17.38951 5.05433,-18.06506 -0.25924,-0.67556 -4.2299,-2.25131 -8.82369,-3.50168 -17.65139,-4.80448 -36.01471,-13.89028 -48.60739,-24.04995 -3.44027,-2.77559 -6.83644,-5.04652 -7.54705,-5.04652 -0.71061,0 -3.04967,1.8 -5.19791,4 -6.64026,6.80024 -7.91091,4.57084 -1.41279,-2.47879 4.61579,-5.00753 4.6518,-4.82729 -2.51173,-12.56968 l -3.70641,-4.00591 -3.87601,2.17843 c -2.1318,1.19815 -6.2428,4.11992 -9.13556,6.49284 -2.89275,2.37292 -5.47735,4.0966 -5.74355,3.8304 -0.80998,-0.80999 7.0869,-8.36096 12.13605,-11.60445 2.6125,-1.67823 4.75,-3.28714 4.75,-3.57536 0,-0.28821 -1.38303,-2.9413 -3.07339,-5.89575 -2.07834,-3.63257 -3.71005,-5.37173 -5.03984,-5.37173 -2.33539,0 -8.7308,3.13937 -14.63677,7.18489 -2.3375,1.60115 -4.25,2.48619 -4.25,1.96674 0,-1.6713 6.61541,-6.81637 12.40876,-9.65079 3.09648,-1.51497 5.8237,-3.06795 6.06048,-3.45106 0.23678,-0.38312 -0.63357,-4.04737 -1.9341,-8.14278 -4.58232,-14.4298 -5.61801,-30.1501 -3.09034,-46.907 1.31153,-8.69464 5.88381,-23.82156 9.07597,-30.02696 1.23495,-2.40068 0.99804,-2.82544 -4.74089,-8.5 -18.0939,-17.89095 -33.68457,-51.11379 -34.93356,-74.441438 -0.45563,-8.509956 1.16587,-8.927009 8.92787,-2.296263 10.06908,8.601581 11.13069,9.070811 32.41174,14.325961 25.06521,6.18962 46.80235,12.14586 52.9827,14.51793 l 4.66864,1.79185 6.83136,-3.14196 c 11.0564,-5.08518 23.46434,-9.86308 28.83137,-11.10203 2.75,-0.63483 9.05,-2.09455 14,-3.24382 11.31979,-2.6282 33.35518,-3.50919 50.5,-2.01901 15.33292,1.33269 41.35599,7.67818 51.82067,12.63599 l 7.32067,3.46829 3.87528,-1.97702 c 2.1314,-1.08736 8.99981,-3.28933 15.26313,-4.89325 14.55789,-3.72802 31.2272,-11.98845 46.72025,-23.152087 15.80586,-11.389032 19.99427,-13.946187 22.8427,-13.946187 l 2.45115,0 -0.57515,9.25 c -0.67012,10.77741 -5.01879,28.445234 -10.31124,41.892564 -5.04094,12.80827 -16.0226,35.45507 -19.65724,40.53789 l -2.98937,4.18046 3.54917,8.31954 c 8.75232,20.51616 10.50672,40.32472 5.6037,63.27012 -1.05192,4.92281 -1.57534,9.248 -1.16315,9.61153 0.41219,0.36353 4.66884,1.62282 9.45922,2.79842 10.92701,2.68159 19.79021,5.96345 19.79021,7.32791 0,1.27055 -1.2269,1.01087 -16.73754,-3.54262 -6.73065,-1.97593 -12.8572,-3.35482 -13.61455,-3.06419 -0.75736,0.29062 -1.88796,1.64982 -2.51246,3.02044 -2.21133,4.85334 -1.49287,6.18945 5.11455,9.51146 7.37662,3.70874 19.45563,11.87978 22.75807,15.39507 4.4376,4.72361 1.03251,3.73439 -6.22367,-1.80806 -9.30521,-7.10754 -20.61048,-13.70053 -23.49285,-13.70053 -2.2077,0 -5.29155,4.22318 -5.29155,7.24652 0,0.7402 3.04087,4.06839 6.75749,7.39596 6.93571,6.20969 13.03136,13.902 11.90723,15.02614 -0.34782,0.34781 -4.82259,-3.71034 -9.94393,-9.01812 -5.12135,-5.30777 -9.82732,-9.6505 -10.45772,-9.6505 -0.6304,0 -3.1397,2.5875 -5.57622,5.75 -11.84321,15.37196 -31.71206,28.05432 -58.43685,37.30044 -10.96151,3.79242 -10.62895,2.74588 -6.76849,21.29988 4.59807,22.09912 8.2622,34.96977 26.37633,92.64968 12.78426,40.70827 24.90381,87.5054 35.56312,137.31963 11.72881,54.81233 12.03595,56.75517 13.54521,85.68037 2.30418,44.15978 5.84572,55.73685 18.92687,61.87081 5.42163,2.54229 6.20192,2.62735 23.60696,2.57357 25.103,-0.0776 36.57228,-2.60876 63.65484,-14.04815 25.27365,-10.67531 37.89442,-21.27447 57.08213,-47.93859 4.8947,-6.8019 7.8163,-14.59066 8.41816,-22.44215 0.63294,-8.25691 -2.33528,-17.32438 -10.14978,-31.00613 -9.4404,-16.52837 -9.63132,-25.44448 -0.94241,-44.00936 7.09603,-15.16149 8.82404,-22.13406 8.17839,-33 -0.70351,-11.83949 -4.24633,-21.72833 -16.44547,-45.90309 -8.18717,-16.22434 -10.29586,-21.26309 -10.29586,-24.60212 0,-11.91938 13.61814,-18.14555 26.53383,-12.13118 10.87252,5.06294 21.70687,21.51054 27.19104,41.27863 2.49446,8.99144 2.73657,11.39569 2.75496,27.35776 0.0253,21.96589 -1.53536,28.50225 -11.62357,48.68125 -7.03345,14.06868 -7.08651,14.23537 -6.68503,21 0.32499,5.47572 1.23149,8.50939 4.6024,15.40239 6.44575,13.18056 7.33096,16.40708 7.93331,28.91636 0.62555,12.99109 -0.6559,21.1019 -5.48638,34.72555 -4.46858,12.60295 -11.3528,23.10693 -22.72056,34.66714 -11.06607,11.25342 -18.60169,16.62698 -35,24.9581 -13.56969,6.89404 -25.38858,10.87105 -42.6875,14.36416 -12.36433,2.49668 -15.16432,2.69137 -39.3125,2.73354 -30.09849,0.0526 -39.72503,-1.17556 -63.14461,-8.05577 -9.8864,-2.90442 -10.97839,-2.94239 -11.64199,-0.40476 -0.91425,3.4961 -4.75944,4.08302 -14.91943,2.27725 -11.29267,-2.00708 -37.12246,-2.15458 -56.79397,-0.32432 -20.10614,1.8707 -34.16087,5.85405 -43.25,12.25779 -2.22471,1.56742 -2.75,2.70744 -2.75,5.96829 0,5.34122 -2.62361,10.63234 -6.41996,12.94735 -4.16158,2.53773 -7.53825,2.36762 -11.53501,-0.5811 -1.83894,-1.35672 -3.73516,-2.22473 -4.21383,-1.9289 -1.73836,1.07437 -7.55402,-1.70055 -8.66243,-4.13325 -0.63714,-1.39837 -1.9724,-2.47107 -3.0759,-2.47107 -3.52968,0 -5.36231,-2.9172 -4.82535,-7.68107 0.26774,-2.37541 0.23965,-4.31893 -0.0624,-4.31893 -1.92244,0 -17.98151,3.35397 -19.22402,4.01498 -0.83541,0.44443 -2.06312,2.84272 -2.72824,5.32953 -2.7873,10.42128 -20.28251,22.65549 -32.39792,22.65549 -4.52874,0 -6.28292,-0.48594 -8.52821,-2.36247 z M -786.0714,317.8362 c 8.48789,-1.19606 19.5,-4.89366 19.5,-6.54763 0,-2.22212 -18.5057,-4.2146 -43,-4.62975 -17.34162,-0.29393 -17.50282,-0.27682 -17.81127,1.89019 -0.37249,2.61694 2.19045,4.47158 9.38627,6.79224 10.46622,3.37536 20.25067,4.14002 31.925,2.49495 z m 4,-30.46138 c 10.93247,-3.20174 18.76093,-7.45475 27.93425,-15.176 6.98013,-5.87523 15.01278,-16.28524 16.19222,-20.98449 0.79588,-3.17102 -1.27227,-10.35212 -2.9814,-10.35212 -0.70105,0 -1.97985,1.4625 -2.84177,3.25 -6.69604,13.88666 -24.52675,26.53364 -44.8038,31.77849 -14.96035,3.86963 -37.70728,1.67387 -52.7495,-5.0919 l -6.25,-2.81116 0,2.39023 c 0,5.60537 5.38698,10.73068 16.31717,15.52458 13.02875,5.71431 32.68887,6.30287 49.18283,1.47237 z"
         id="path7010"
         inkscape:connector-curvature="0" />
      <path
         style="fill:#afb1b0"
         d="m -905.24467,778.49974 c -2.4331,-2.0335 -3.60465,-2.29664 -8.41316,-1.88974 -7.12318,0.60279 -11.28844,-1.37702 -13.03006,-6.19338 -0.81354,-2.24982 -2.28156,-3.89086 -4.18646,-4.6799 -3.25014,-1.34625 -6.68753,-6.21973 -6.69331,-9.48965 -0.002,-1.16333 0.89626,-3.25931 1.99626,-4.65773 1.1,-1.39842 2,-2.95682 2,-3.46311 0,-1.4354 -9.45264,-3.26481 -16.82629,-3.25647 -17.16255,0.0194 -27.44822,3.57549 -37.61907,13.00603 -4.06158,3.76595 -8.75058,7.55351 -10.42001,8.4168 -4.35693,2.25308 -11.38533,2.05504 -13.59173,-0.38296 -1.242,-1.37243 -2.5675,-1.7925 -4.461,-1.4138 -1.7688,0.35376 -3.146,-0.006 -4.0104,-1.04742 -0.724,-0.87241 -1.8578,-1.5862 -2.5196,-1.5862 -0.6618,0 -2.1817,-1.0415 -3.3776,-2.31445 -2.8667,-3.05147 -2.8324,-7.74413 0.076,-10.36357 3.9409,-3.54971 16.9787,-10.10168 26.34679,-13.24029 17.20733,-5.76499 48.27348,-8.6339 72.90321,-6.7325 l 11,0.8492 -8.57351,-8.8492 c -9.69112,-10.00275 -13.71454,-15.53476 -18.07427,-24.85129 -4.38874,-9.37854 -5.82695,-15.82025 -5.84035,-26.15881 -0.0193,-14.89904 5.06674,-27.17248 14.44448,-34.85683 8.87129,-7.26936 18.09105,-8.87766 31.94348,-5.57224 4.89491,1.16801 8.98846,2.00357 9.09678,1.85681 0.10832,-0.14676 0.73485,-15.79183 1.3923,-34.76683 3.3199,-95.81805 5.84393,-132.66077 11.06409,-161.5 3.07535,-16.99004 11.63875,-47.1342 24.66871,-86.83679 3.03911,-9.26023 5.31356,-17.38951 5.05433,-18.06506 -0.25924,-0.67556 -4.2299,-2.25131 -8.82369,-3.50168 -17.65139,-4.80448 -36.01471,-13.89028 -48.60739,-24.04995 -3.44027,-2.77559 -6.83644,-5.04652 -7.54705,-5.04652 -0.71061,0 -3.04967,1.8 -5.19791,4 -6.64026,6.80024 -7.91091,4.57084 -1.41279,-2.47879 4.61579,-5.00753 4.6518,-4.82729 -2.51173,-12.56968 l -3.70641,-4.00591 -3.87601,2.17843 c -2.1318,1.19815 -6.2428,4.11992 -9.13556,6.49284 -2.89275,2.37292 -5.47735,4.0966 -5.74355,3.8304 -0.80998,-0.80999 7.0869,-8.36096 12.13605,-11.60445 2.6125,-1.67823 4.75,-3.28714 4.75,-3.57536 0,-0.28821 -1.38303,-2.9413 -3.07339,-5.89575 -2.07834,-3.63257 -3.71005,-5.37173 -5.03984,-5.37173 -2.33539,0 -8.7308,3.13937 -14.63677,7.18489 -2.3375,1.60115 -4.25,2.48619 -4.25,1.96674 0,-1.6713 6.61541,-6.81637 12.40876,-9.65079 3.09648,-1.51497 5.8237,-3.06795 6.06048,-3.45106 0.23678,-0.38312 -0.63357,-4.04737 -1.9341,-8.14278 -4.58232,-14.4298 -5.61801,-30.1501 -3.09034,-46.907 1.31153,-8.69464 5.88381,-23.82156 9.07597,-30.02696 1.23495,-2.40068 0.99804,-2.82544 -4.74089,-8.5 -18.0939,-17.89095 -33.68457,-51.11379 -34.93356,-74.441438 -0.45563,-8.509956 1.16587,-8.927009 8.92787,-2.296263 10.06908,8.601581 11.13069,9.070811 32.41174,14.325961 25.06521,6.18962 46.80235,12.14586 52.9827,14.51793 l 4.66864,1.79185 6.83136,-3.14196 c 11.0564,-5.08518 23.46434,-9.86308 28.83137,-11.10203 2.75,-0.63483 9.05,-2.09455 14,-3.24382 11.31979,-2.6282 33.35518,-3.50919 50.5,-2.01901 15.33292,1.33269 41.35599,7.67818 51.82067,12.63599 l 7.32067,3.46829 3.87528,-1.97702 c 2.1314,-1.08736 8.99981,-3.28933 15.26313,-4.89325 14.55789,-3.72802 31.2272,-11.98845 46.72025,-23.152087 15.80586,-11.389032 19.99427,-13.946187 22.8427,-13.946187 l 2.45115,0 -0.57515,9.25 c -0.67012,10.77741 -5.01879,28.445234 -10.31124,41.892564 -5.04094,12.80827 -16.0226,35.45507 -19.65724,40.53789 l -2.98937,4.18046 3.54917,8.31954 c 8.75232,20.51616 10.50672,40.32472 5.6037,63.27012 -1.05192,4.92281 -1.57534,9.248 -1.16315,9.61153 0.41219,0.36353 4.66884,1.62282 9.45922,2.79842 10.92701,2.68159 19.79021,5.96345 19.79021,7.32791 0,1.27055 -1.2269,1.01087 -16.73754,-3.54262 -6.73065,-1.97593 -12.8572,-3.35482 -13.61455,-3.06419 -0.75736,0.29062 -1.88796,1.64982 -2.51246,3.02044 -2.21133,4.85334 -1.49287,6.18945 5.11455,9.51146 7.37662,3.70874 19.45563,11.87978 22.75807,15.39507 4.4376,4.72361 1.03251,3.73439 -6.22367,-1.80806 -9.30521,-7.10754 -20.61048,-13.70053 -23.49285,-13.70053 -2.2077,0 -5.29155,4.22318 -5.29155,7.24652 0,0.7402 3.04087,4.06839 6.75749,7.39596 6.93571,6.20969 13.03136,13.902 11.90723,15.02614 -0.34782,0.34781 -4.82259,-3.71034 -9.94393,-9.01812 -5.12135,-5.30777 -9.82732,-9.6505 -10.45772,-9.6505 -0.6304,0 -3.1397,2.5875 -5.57622,5.75 -11.84321,15.37196 -31.71206,28.05432 -58.43685,37.30044 -10.96151,3.79242 -10.62895,2.74588 -6.76849,21.29988 4.59807,22.09912 8.2622,34.96977 26.37633,92.64968 12.78426,40.70827 24.90381,87.5054 35.56312,137.31963 11.72881,54.81233 12.03595,56.75517 13.54521,85.68037 2.30418,44.15978 5.84572,55.73685 18.92687,61.87081 5.42163,2.54229 6.20192,2.62735 23.60696,2.57357 25.103,-0.0776 36.57228,-2.60876 63.65484,-14.04815 25.27365,-10.67531 37.89442,-21.27447 57.08213,-47.93859 4.8947,-6.8019 7.8163,-14.59066 8.41816,-22.44215 0.63294,-8.25691 -2.33528,-17.32438 -10.14978,-31.00613 -9.4404,-16.52837 -9.63132,-25.44448 -0.94241,-44.00936 7.09603,-15.16149 8.82404,-22.13406 8.17839,-33 -0.70351,-11.83949 -4.24633,-21.72833 -16.44547,-45.90309 -8.18717,-16.22434 -10.29586,-21.26309 -10.29586,-24.60212 0,-11.91938 13.61814,-18.14555 26.53383,-12.13118 10.87252,5.06294 21.70687,21.51054 27.19104,41.27863 2.49446,8.99144 2.73657,11.39569 2.75496,27.35776 0.0253,21.96589 -1.53536,28.50225 -11.62357,48.68125 -7.03345,14.06868 -7.08651,14.23537 -6.68503,21 0.32499,5.47572 1.23149,8.50939 4.6024,15.40239 6.44575,13.18056 7.33096,16.40708 7.93331,28.91636 0.62555,12.99109 -0.6559,21.1019 -5.48638,34.72555 -4.46858,12.60295 -11.3528,23.10693 -22.72056,34.66714 -11.06607,11.25342 -18.60169,16.62698 -35,24.9581 -13.56969,6.89404 -25.38858,10.87105 -42.6875,14.36416 -12.36433,2.49668 -15.16432,2.69137 -39.3125,2.73354 -30.09849,0.0526 -39.72503,-1.17556 -63.14461,-8.05577 -9.8864,-2.90442 -10.97839,-2.94239 -11.64199,-0.40476 -0.91425,3.4961 -4.75944,4.08302 -14.91943,2.27725 -11.29267,-2.00708 -37.12246,-2.15458 -56.79397,-0.32432 -20.10614,1.8707 -34.16087,5.85405 -43.25,12.25779 -2.22471,1.56742 -2.75,2.70744 -2.75,5.96829 0,5.34122 -2.62361,10.63234 -6.41996,12.94735 -4.16158,2.53773 -7.53825,2.36762 -11.53501,-0.5811 -1.83894,-1.35672 -3.73516,-2.22473 -4.21383,-1.9289 -1.73836,1.07437 -7.55402,-1.70055 -8.66243,-4.13325 -0.63714,-1.39837 -1.9724,-2.47107 -3.0759,-2.47107 -3.52968,0 -5.36231,-2.9172 -4.82535,-7.68107 0.26774,-2.37541 0.23965,-4.31893 -0.0624,-4.31893 -1.92244,0 -17.98151,3.35397 -19.22402,4.01498 -0.83541,0.44443 -2.06312,2.84272 -2.72824,5.32953 -2.7873,10.42128 -20.28251,22.65549 -32.39792,22.65549 -4.52874,0 -6.28292,-0.48594 -8.52821,-2.36247 z M -778.0714,316.3216 c 10.95291,-2.85214 19.6386,-7.78368 26.35547,-14.96404 3.37949,-3.61269 6.14453,-6.9905 6.14453,-7.50626 0,-1.56481 -5.23273,-3.76195 -11.79247,-4.95146 -12.09571,-2.19337 -24.86156,2.02457 -37.34846,12.34023 l -6.64093,5.48619 -13.10907,-0.58302 -13.10907,-0.58301 0,2.62794 c 0,1.63068 0.85383,3.17599 2.25,4.07216 2.85646,1.8335 10.95762,4.45644 17.325,5.60938 6.62383,1.19936 22.53506,0.37623 29.925,-1.54811 z m -4.66136,-28.4142 c 8.85242,-2.53479 15.62848,-5.8432 23.73179,-11.58707 11.06596,-7.84387 21.42957,-20.96168 21.42957,-27.12462 0,-3.24547 -2.08358,-8.3335 -3.41261,-8.3335 -0.66933,0 -1.92217,1.4625 -2.78409,3.25 -6.69604,13.88666 -24.52675,26.53364 -44.8038,31.77849 -14.92826,3.86133 -37.70726,1.67351 -52.67798,-5.05947 -3.39816,-1.5283 -6.38319,-2.57402 -6.6334,-2.32381 -0.2502,0.2502 -0.0812,2.11207 0.37564,4.13749 1.38737,6.15142 11.1722,12.74596 24.12684,16.26043 9.73785,2.64179 29.64346,2.15309 40.64804,-0.99794 z m -17.75541,-36.17023 c 5.5338,-2.94949 15.91677,-12.57682 15.91677,-14.7584 0,-4.11168 -13.10085,-5.41412 -27.16203,-2.70035 -11.00546,2.12402 -12.83797,3.02774 -12.83797,6.3312 0,5.40761 9.69494,14.09294 15.86002,14.20839 1.29801,0.0243 4.99846,-1.36207 8.22321,-3.08084 z m -126.0837,-85.62496 c 1.17957,-1.5125 4.58723,-5.32569 7.57258,-8.47375 2.98534,-3.14807 5.41718,-6.29807 5.40409,-7 -0.0131,-0.70194 -3.04383,-3.30125 -6.73497,-5.77625 -16.85504,-11.3017 -24.24773,-16.86438 -30.81694,-23.1884 -3.89164,-3.74638 -7.37914,-6.8116 -7.75,-6.8116 -1.25467,0 -0.68393,5.58654 1.37307,13.43991 3.98007,15.19549 13.09834,30.71059 21.80273,37.09822 2.55745,1.87675 5.17975,3.42344 5.82733,3.43707 0.64758,0.0136 2.14253,-1.2127 3.32211,-2.7252 z m 267.28397,-9.5 c 7.1038,-11.4692 12.43263,-22.70923 20.60405,-43.4598 1.23226,-3.12923 1.66498,-5.44872 1.08355,-5.80807 -0.53242,-0.32905 -3.33122,1.62407 -6.21956,4.34027 -2.88835,2.71619 -10.20154,8.19649 -16.25154,12.17845 -10.61056,6.9836 -22.5,17.29287 -22.5,19.50964 0,0.5902 2.0514,3.07928 4.55867,5.5313 2.50727,2.45201 6.387,6.82071 8.62161,9.70821 2.23462,2.8875 4.41164,5.25 4.83782,5.25 0.42619,0 2.79562,-3.2625 5.2654,-7.25 z"
         id="path7008"
         inkscape:connector-curvature="0" />
      <path
         style="fill:#63484d"
         d="m -840.02188,301.61221 c -7.88776,-7.91542 -13.29296,-17.42498 -16.03449,-28.2101 -1.59777,-6.2856 -2.03208,-14.53992 -0.76503,-14.53987 1.84012,7e-5 6.63748,7.69672 7.41202,11.89147 1.13664,6.15576 3.13717,8.60496 10.82622,13.25421 14.70495,8.8915 32.77916,10.8908 53.51176,5.91928 4.4,-1.05509 10.17179,-2.85005 12.82621,-3.98879 10.98412,-4.71222 25.79407,-16.91345 31.69882,-26.1152 1.74817,-2.72429 3.64332,-4.66597 4.21144,-4.31485 1.34943,0.83399 0.28725,13.54406 -1.80741,21.62763 -1.64525,6.34922 -4.69944,13.15726 -6.36409,14.18607 -0.52999,0.32755 -3.67223,-0.31692 -6.98275,-1.43215 -14.18033,-4.77701 -29.5972,-0.94563 -43.31651,10.76497 l -5.2566,4.48695 -13.16237,-0.66057 c -11.2957,-0.56688 -13.38818,-0.43476 -14.75456,0.93162 -0.8757,0.8757 -1.59218,2.01004 -1.59218,2.52076 0,2.58739 -3.95947,0.19234 -10.45048,-6.32143 z m 2.80748,-77.74158 c -3.1898,-1.28724 -5.357,-4.9857 -5.357,-9.14203 0,-7.31122 8.70169,-11.16129 14.1277,-6.25082 4.24667,3.84318 2.99993,12.23283 -2.21889,14.93159 -3.17011,1.63932 -3.56387,1.66704 -6.55181,0.46126 z m 60.39298,-0.0885 c -2.90353,-1.69115 -4.99713,-6.78892 -4.30448,-10.48109 0.69448,-3.70189 5.56728,-8.4388 8.68089,-8.4388 2.82438,0 7.63802,2.69127 8.84397,4.94461 0.5663,1.05815 1.02964,3.56311 1.02964,5.56657 0,6.96749 -8.30775,11.86976 -14.25002,8.40871 z m -70.87122,-35.66992 c 2.53003,-4.66486 9.56206,-9.25 14.18634,-9.25 3.34645,0 2.10521,1.86869 -2.07268,3.12042 -2.20416,0.66038 -5.7632,2.70344 -7.90896,4.54014 -4.34841,3.72208 -5.62258,4.20373 -4.2047,1.58944 z m 86.35485,-3.90025 c -2.34652,-1.41471 -6.5847,-2.85965 -9.41818,-3.21097 -6.5885,-0.81692 -7.77995,-3.13878 -1.61065,-3.13878 5.06793,0 12.45483,3.41639 14.5948,6.75 1.78401,2.77909 1.68993,2.76853 -3.56597,-0.40025 z"
         id="path7006"
         inkscape:connector-curvature="0" />
    </g>
  </g>
</svg>
